<svg xmlns="http://www.w3.org/2000/svg" width="212" height="60" viewBox="0 0 212 60">
  <g fill="none" fill-rule="evenodd">
    <g transform="translate(53.841 16.667)">
      <path fill="#8A8B8A" d="M148.229727,32.8413333 L150.331556,26.1346667 L144.629765,8.26866667 L146.945613,8.26866667 L151.329638,22.886 L151.400305,22.886 L155.642324,8.26866667 L157.781168,8.26866667 L150.331556,32.8413333 L148.229727,32.8413333 Z M139.481867,9.96533333 L136.595302,9.96533333 L136.595302,8.26866667 L139.481867,8.26866667 L139.481867,4.598 L141.620711,3.68 L141.620711,8.26866667 L145.254997,8.26866667 L145.254997,9.96533333 L141.620711,9.96533333 L141.620711,21.404 C141.620711,22.486 141.679937,23.168 141.798387,23.4506667 C142.059517,24.0393333 142.655137,24.3333333 143.581879,24.3333333 C144.245473,24.3333333 144.804076,24.2986667 145.254997,24.228 L145.254997,26.064 C144.614959,26.1346667 143.937905,26.1693333 143.224508,26.1693333 C140.729638,26.1693333 139.481867,25.016 139.481867,22.71 L139.481867,9.96533333 Z M119.324368,26.0993333 L119.324368,9.96533333 L116.437803,9.96533333 L116.437803,8.26866667 L119.324368,8.26866667 L119.324368,5.26866667 C119.324368,2.06933333 120.856825,0.468 123.922413,0.468 C124.017308,0.468 124.420444,0.516 125.133168,0.608666667 L125.133168,2.374 L123.530717,2.374 C122.151708,2.374 121.463213,3.32733333 121.463213,5.23466667 L121.463213,8.26866667 L125.097498,8.26866667 L125.097498,9.96533333 L121.463213,9.96533333 L121.463213,26.0993333 L119.324368,26.0993333 Z M113.759873,20.2386667 L113.759873,16.9913333 C111.144533,17.0846667 109.481511,17.2373333 108.768787,17.4493333 C106.963086,17.9913333 106.061244,19.2033333 106.061244,21.0846667 C106.061244,22.1446667 106.321702,23.004 106.844635,23.6633333 C107.438908,24.3933333 108.257968,24.758 109.303835,24.758 C110.515937,24.758 111.559784,24.2986667 112.440089,23.3806667 C113.319721,22.464 113.759873,21.416 113.759873,20.2386667 Z M113.829867,23.9106667 C112.689105,25.6046667 110.989067,26.452 108.73379,26.452 C107.165663,26.452 105.941448,25.9586667 105.062489,24.9693333 C104.207759,24.0513333 103.779048,22.792 103.779048,21.192 C103.779048,19.2853333 104.371975,17.8726667 105.561867,16.9546667 C106.465054,16.2493333 107.793587,15.7893333 109.552178,15.5786667 C110.954743,15.4846667 112.355962,15.3893333 113.759873,15.296 L113.759873,13.8126667 C113.759873,12.4246667 113.508838,11.4 113.00946,10.7413333 C112.440089,9.98866667 111.477003,9.612 110.122895,9.612 C109.077702,9.612 108.245854,9.86 107.628025,10.3533333 C106.938184,10.8946667 106.594946,11.672 106.594946,12.684 L104.314095,12.684 C104.40899,11.0586667 105.03826,9.83466667 106.201905,9.01066667 C107.248444,8.28133333 108.613994,7.91666667 110.301917,7.91666667 C114.032444,7.91666667 115.897371,9.49533333 115.897371,12.6473333 L113.829867,23.9106667 Z M126.355365,14.132 L126.355365,17.378 C128.968686,17.284 130.631708,17.132 131.343759,16.9206667 C133.150133,16.378 134.051975,15.1666667 134.051975,13.284 C134.051975,12.224 133.791517,11.3646667 133.268584,10.706 C132.675657,9.97666667 131.853905,9.612 130.808711,9.612 C129.598629,9.612 128.552089,10.0706667 127.672457,10.9886667 C126.794844,11.9066667 126.355365,12.9533333 126.355365,14.132 Z M126.283352,10.4586667 C127.422768,8.76466667 129.122806,7.91666667 131.379429,7.91666667 C132.948902,7.91666667 134.171771,8.412 135.05073,9.4 C135.906806,10.318 136.333498,11.5773333 136.333498,13.1773333 C136.333498,15.0833333 135.739898,16.4966667 134.551352,17.4146667 C133.649511,18.12 132.318286,18.5786667 130.559022,18.7906667 C129.157803,18.8846667 127.755238,18.9793333 126.355365,19.0733333 L126.355365,20.556 C126.355365,21.9446667 126.602362,22.9693333 127.102413,23.628 C127.672457,24.3806667 128.636216,24.758 129.988978,24.758 C131.034844,24.758 131.867365,24.5106667 132.485194,24.016 C133.173689,23.474 133.518273,22.698 133.518273,21.6866667 L135.798451,21.6866667 C135.704229,23.31 135.074286,24.5326667 133.909968,25.3573333 C132.864775,26.0873333 131.497879,26.452 129.811302,26.452 C126.082121,26.452 124.217194,24.8753333 124.217194,21.722 L126.283352,10.4586667 Z M102.40946,21.404 C102.40946,24.77 100.640102,26.452 97.0993651,26.452 C95.1980952,26.452 93.8204317,25.9926667 92.9650286,25.076 C92.1102984,24.158 91.6937016,22.7333333 91.7186032,20.804 L93.8917714,20.804 C93.8917714,22.1446667 94.1057905,23.1226667 94.5345016,23.7346667 C95.0338794,24.4873333 95.9236063,24.8633333 97.2070476,24.8633333 C99.2496508,24.8633333 100.270616,23.8166667 100.270616,21.722 C100.270616,20.4506667 99.5713524,19.3906667 98.1701333,18.5433333 C96.886019,17.8153333 95.5911365,17.0966667 94.2848127,16.3893333 C92.8822476,15.378 92.1816381,14.0366667 92.1816381,12.366 C92.1816381,9.4 93.9866667,7.91666667 97.5987429,7.91666667 C100.736343,7.91666667 102.303124,9.636 102.303124,13.072 L100.201295,13.072 C100.152838,11.8946667 99.9267048,11.0473333 99.5228952,10.5286667 C99.0719746,9.91666667 98.2515683,9.612 97.0636952,9.612 C96.2816508,9.612 95.6254603,9.84666667 95.103873,10.318 C94.5816127,10.7893333 94.3218286,11.412 94.3218286,12.1893333 C94.3218286,13.3893333 95.0210921,14.4013333 96.4236571,15.2253333 C97.7064254,15.9313333 99.0013079,16.6373333 100.307632,17.344 C101.708851,18.356 102.40946,19.7086667 102.40946,21.404 L102.40946,21.404 Z"/>
      <path fill="#00324F" d="M80.6771048,8.26866667 L85.4528254,8.26866667 L85.4528254,10.564 L85.522146,10.564 C86.3311111,8.8 87.8871238,7.91666667 90.1928762,7.91666667 L90.1928762,12.366 C88.2431492,12.248 86.9489397,12.6606667 86.3068825,13.602 C85.9024,14.166 85.7025143,15.0953333 85.7025143,16.3893333 L85.7025143,26.0993333 L80.6771048,26.0993333 L80.6771048,8.26866667 Z M74.2376889,17.4833333 C72.5746667,17.5553333 71.5415873,17.6853333 71.1377778,17.8726667 C70.3059302,18.25 69.8893333,19.1446667 69.8893333,20.556 C69.8893333,22.4406667 70.5071619,23.3806667 71.742819,23.3806667 C73.0033778,23.3806667 73.7867683,22.6393333 74.0956825,21.1566667 C74.1892317,20.71 74.2376889,19.4846667 74.2376889,17.4833333 Z M79.1574349,13.8846667 L74.4517079,23.7346667 C73.4065143,25.5473333 71.8383873,26.452 69.747327,26.452 C66.5619429,26.452 64.9729524,24.5573333 64.9729524,20.7673333 C64.9729524,18.132 65.932673,16.3793333 67.8581714,15.508 C69.1173841,14.9193333 71.2447873,14.6486667 74.2376889,14.6953333 L74.2376889,13.318 C74.2376889,12.4246667 74.1313524,11.8013333 73.9166603,11.448 C73.607746,10.9533333 73.0377016,10.706 72.205181,10.706 C71.4217905,10.706 70.8880889,10.9766667 70.6013841,11.5186667 C70.4136127,11.918 70.3180444,12.554 70.3180444,13.4246667 L65.4003175,13.4246667 C65.4003175,9.75266667 67.584927,7.91666667 71.9568381,7.91666667 C74.8555175,7.91666667 76.8510095,8.50533333 77.9446603,9.68266667 C78.7529524,10.554 79.1574349,11.9546667 79.1574349,13.8846667 Z M23.1214603,16.8846667 C24.7838095,16.814 25.8168889,16.684 26.2206984,16.4966667 C27.052546,16.1186667 27.4684698,15.2253333 27.4684698,13.8126667 C27.4684698,11.9286667 26.8519873,10.9886667 25.6149841,10.9886667 C24.3557714,10.9886667 23.572381,11.7293333 23.2621206,13.2126667 C23.1685714,13.6593333 23.1214603,14.8846667 23.1214603,16.8846667 Z M18.2010413,20.4846667 L22.9067683,10.636 C23.9519619,8.82333333 25.5200889,7.91666667 27.6111492,7.91666667 C30.7951873,7.91666667 32.3868698,9.81133333 32.3868698,13.602 C32.3868698,16.2373333 31.4258032,17.9913333 29.5003048,18.862 C28.2410921,19.4493333 26.1143619,19.7206667 23.1214603,19.6733333 L23.1214603,21.0513333 C23.1214603,21.9446667 23.2277968,22.568 23.4418159,22.9206667 C23.7493841,23.416 24.3214476,23.6633333 25.1519492,23.6633333 C25.9353397,23.6633333 26.4703873,23.392 26.7570921,22.852 C26.9462095,22.4506667 27.0411048,21.8153333 27.0411048,20.9446667 L31.9581587,20.9446667 C31.9581587,24.616 29.7735492,26.452 25.4016381,26.452 C22.5022857,26.452 20.5067937,25.8633333 19.4144889,24.6866667 C18.6061968,23.8153333 18.2010413,22.416 18.2010413,20.4846667 Z M45.4884698,8.26866667 L45.4884698,10.0706667 L45.5591365,10.0706667 C46.4609778,8.636 47.8756571,7.91666667 49.8011556,7.91666667 C51.6061841,7.91666667 52.9495238,8.67066667 53.8278095,10.1773333 C54.9685714,8.67066667 56.5245841,7.91666667 58.4965206,7.91666667 C59.7557333,7.91666667 60.8190984,8.26466667 61.6879619,8.95866667 C62.5541333,9.65266667 62.9895746,10.6006667 62.9895746,11.8013333 L62.9895746,26.0993333 L57.962819,26.0993333 L57.962819,13.8126667 C57.962819,11.93 57.3322032,10.9886667 56.0743365,10.9886667 C54.8144508,10.9886667 54.1838349,11.93 54.1838349,13.8126667 L54.1838349,26.0993333 L49.2661079,26.0993333 L49.2661079,13.8126667 C49.2661079,11.93 48.6368381,10.9886667 47.3776254,10.9886667 C46.1170667,10.9886667 45.4884698,11.93 45.4884698,13.8126667 L45.4884698,26.0993333 L40.4630603,26.0993333 L40.4630603,8.26866667 L45.4884698,8.26866667 Z M33.5134984,26.0993333 L38.5389079,26.0993333 L38.5389079,0.608666667 L33.5134984,0.608666667 L33.5134984,26.0993333 Z M5.72467302,4.528 L5.72467302,22.1786667 L8.3272254,22.1786667 C9.91823492,22.1786667 10.9883302,21.5093333 11.5354921,20.168 C12.0099683,18.968 12.2475429,16.6953333 12.2475429,13.3546667 C12.2475429,10.318 12.0940952,8.25933333 11.7838349,7.176 C11.2622476,5.41066667 10.1685968,4.528 8.5055746,4.528 L5.72467302,4.528 Z M0.344584127,26.0993333 L0.344584127,0.608666667 L9.32598095,0.608666667 C12.6277968,0.608666667 14.9093206,1.71533333 16.1678603,3.92733333 C17.1901714,5.76333333 17.7003175,8.85866667 17.7003175,13.2126667 C17.7003175,16.9326667 17.4163048,19.568 16.8455873,21.1213333 C15.6341587,24.4393333 13.0551619,26.0993333 9.11128889,26.0993333 L0.344584127,26.0993333 L0.344584127,26.0993333 Z"/>
    </g>
    <path fill="#E0562A" d="M39.220673,22.056 C37.5583238,18.9233333 33.6117587,16.6773333 29.0016,16.6773333 L11.5428952,16.6786667 C5.48373333,16.6786667 0.525625397,12.822 0.525625397,8.106 C0.525625397,8.106 0.525625397,2.87266667 0.525625397,1.046 C0.525625397,0.582666667 0.928088889,0.252666667 1.32314921,0.998 C2.98415238,4.13066667 6.93206349,6.37666667 11.5428952,6.37666667 L29.0016,6.374 C35.0600889,6.374 40.0168508,10.2333333 40.0168508,14.9493333 C40.0168508,14.9493333 40.0168508,20.1826667 40.0168508,22.0066667 C40.0168508,22.4726667 39.6157333,22.8013333 39.220673,22.056"/>
    <path fill="#EC9036" d="M39.220673,38.2646667 C39.6157333,37.5173333 40.0168508,37.8466667 40.0168508,38.3113333 C40.0168508,40.1373333 40.0168508,45.3713333 40.0168508,45.3713333 C40.0168508,50.0873333 35.0600889,53.9446667 29.0016,53.9446667 L11.5428952,53.9433333 C6.93206349,53.9433333 2.98415238,56.1906667 1.32314921,59.322 C0.928088889,60.0666667 0.525625397,59.7373333 0.525625397,59.2726667 C0.525625397,57.4466667 0.525625397,52.214 0.525625397,52.214 C0.525625397,47.4993333 5.48373333,43.6406667 11.5428952,43.6406667 L29.0016,43.642 C33.6117587,43.642 37.5583238,41.396 39.220673,38.2646667 Z M39.220673,26.636 C39.6157333,25.8906667 40.0168508,26.2206667 40.0168508,26.6853333 C40.0168508,28.5106667 40.0168508,33.744 40.0168508,33.744 C40.0168508,38.4586667 35.0600889,42.3166667 29.0016,42.3166667 L11.5428952,42.3153333 C6.93206349,42.3153333 2.98415238,44.5613333 1.32314921,47.6946667 C0.928088889,48.4406667 0.525625397,48.1113333 0.525625397,47.6446667 C0.525625397,45.8206667 0.525625397,40.586 0.525625397,40.586 C0.525625397,35.8713333 5.48373333,32.012 11.5428952,32.012 L29.0016,32.016 C33.6117587,32.016 37.5583238,29.7686667 39.220673,26.636 Z M39.220673,15.0093333 C39.6157333,14.262 40.0168508,14.5926667 40.0168508,15.0573333 C40.0168508,16.8833333 40.0168508,22.116 40.0168508,22.116 C40.0168508,26.8313333 35.0600889,30.6893333 29.0016,30.6893333 L11.5428952,30.6893333 C6.93206349,30.6893333 2.98415238,32.934 1.32314921,36.0666667 C0.928088889,36.8113333 0.525625397,36.4833333 0.525625397,36.0173333 C0.525625397,34.1933333 0.525625397,28.96 0.525625397,28.96 C0.525625397,24.244 5.48373333,20.3873333 11.5428952,20.3873333 L29.0016,20.3886667 C33.6117587,20.3886667 37.5583238,18.1406667 39.220673,15.0093333 Z"/>
  </g>
</svg>
